<?xml version="1.0" encoding="utf-8"?>
<svg version="1.0" xmlns="http://www.w3.org/2000/svg" width="412.000000pt" height="412.000000pt" viewBox="0 0 412.000000 412.000000" preserveAspectRatio="xMidYMid meet">
  <g transform="translate(0.000000,412.000000) scale(0.100000,-0.100000)" fill="#000000" stroke="none">
    <path d="M1548 3043 l-488 -195 0 -99 c0 -54 -4 -101 -10 -104 -13 -8 -13 -52 1 -60 6 -4 7 -14 4 -24 -4 -9 -15 -53 -24 -98 -18 -81 -15 -105 7 -60 10 22 11 22 11 -5 1 -23 6 -28 26 -28 13 0 29 8 34 18 6 9 11 11 11 5 0 -7 5 -13 11 -13 12 0 6 57 -17 138 -11 40 -12 57 -3 73 9 17 7 29 -6 59 -13 30 -15 49 -8 102 l8 66 185 -69 c102 -37 191 -68 198 -69 7 0 12 14 12 40 0 39 1 40 73 74 269 129 706 126 985 -5 61 -29 62 -31 62 -70 0 -21 4 -39 9 -39 14 0 410 146 418 154 13 12 58 -7 -559 242 -223 90 -417 164 -430 164 -13 -1 -242 -89 -510 -197z" style="fill: rgb(255, 255, 255);"/>
    <path d="M1875 2839 c-100 -15 -216 -48 -282 -79 l-63 -29 0 -114 0 -115 32 -11 c54 -19 221 -136 276 -195 29 -31 55 -56 58 -56 2 0 1 56 -2 125 -6 104 -4 131 10 169 54 141 240 156 307 24 16 -31 19 -59 19 -178 l0 -140 37 40 c50 56 174 148 255 190 l68 35 0 113 0 113 -67 31 c-115 52 -256 79 -433 83 -85 2 -182 0 -215 -6z" style="fill: rgb(255, 255, 255);"/>
    <path d="M2001 2597 c-13 -6 -34 -25 -45 -40 -19 -25 -21 -45 -24 -183 -3 -136 -6 -156 -21 -166 -17 -10 -14 -18 38 -87 31 -42 67 -98 81 -124 14 -26 27 -47 30 -47 3 0 19 26 37 58 17 31 53 87 81 123 46 61 48 67 31 78 -17 10 -19 26 -19 157 0 167 -10 202 -65 228 -39 19 -91 20 -124 3z" style="fill: rgb(255, 255, 255);"/>
    <path d="M2820 2539 c-280 -95 -511 -266 -649 -480 -52 -80 -73 -122 -107 -219 -3 -8 -16 16 -29 54 -60 170 -216 357 -407 487 -93 64 -349 179 -397 179 -8 0 -11 -19 -9 -66 l3 -67 115 -46 c277 -111 479 -268 595 -461 46 -77 110 -238 99 -249 -2 -3 -31 24 -64 60 -52 56 -58 68 -54 95 9 51 -36 82 -70 48 -22 -21 -20 -41 5 -61 12 -10 59 -56 105 -103 76 -78 84 -88 84 -125 0 -39 0 -39 -19 -20 -10 11 -68 73 -130 137 l-111 118 0 98 c0 82 -3 102 -17 114 -33 29 -231 158 -242 158 -6 0 -11 10 -11 23 0 42 -49 64 -78 35 -16 -16 -15 -55 1 -61 8 -3 13 4 12 22 0 21 5 26 25 26 18 0 26 -6 28 -22 3 -20 70 -74 215 -172 l47 -32 0 -100 0 -99 140 -148 c131 -138 139 -149 140 -187 l0 -39 -182 180 c-188 186 -263 251 -330 285 -51 26 -49 9 3 -26 37 -24 40 -28 26 -42 -20 -20 -49 -12 -116 32 -30 20 -59 34 -65 32 -11 -4 139 -107 156 -107 6 0 23 9 38 20 l29 20 58 -48 c32 -27 131 -124 221 -216 129 -132 162 -171 162 -193 0 -26 -3 -24 -67 38 -85 82 -195 177 -295 256 -70 56 -75 62 -60 77 15 15 15 16 -3 16 -11 -1 -38 -7 -59 -15 l-40 -14 -107 65 c-100 60 -111 64 -167 64 -52 0 -62 3 -67 20 -8 25 -50 37 -70 20 -20 -16 -19 -54 1 -71 12 -10 22 -10 48 -1 18 7 57 13 87 14 49 2 61 -2 129 -46 41 -27 88 -57 103 -68 24 -17 35 -18 68 -10 22 6 41 6 45 1 3 -5 62 -56 132 -115 181 -151 322 -291 322 -320 0 -31 -11 -30 -41 2 -38 41 -206 165 -304 224 -170 102 -374 179 -596 224 -67 14 -123 27 -126 29 -4 4 91 266 150 413 l25 61 -34 17 -34 16 -16 -32 c-9 -17 -65 -153 -126 -302 -60 -149 -112 -276 -114 -282 -3 -6 49 -16 143 -27 281 -33 504 -91 702 -183 98 -46 273 -145 267 -151 -2 -2 -49 19 -105 47 -268 135 -524 200 -917 235 l-72 6 -26 -45 c-14 -24 -26 -47 -26 -49 0 -2 98 -7 218 -10 275 -7 466 -39 682 -114 158 -56 181 -68 203 -108 42 -74 170 -109 260 -71 34 14 87 69 87 89 0 16 179 87 315 126 209 58 560 100 712 85 35 -4 63 -3 63 1 0 5 -12 28 -26 53 l-26 44 -81 -7 c-254 -20 -535 -79 -716 -149 -47 -18 -137 -59 -198 -90 -62 -31 -113 -54 -113 -52 0 7 158 100 235 139 210 104 481 177 780 208 61 6 111 12 113 14 2 2 -173 436 -228 563 -12 28 -26 52 -31 52 -17 0 -59 -24 -59 -33 0 -6 28 -81 61 -166 65 -166 111 -293 106 -297 -1 -1 -48 -12 -105 -24 -354 -72 -638 -208 -889 -428 l-73 -63 1 33 c1 29 16 47 127 150 70 64 169 151 220 193 83 69 106 95 85 95 -13 0 -228 -184 -332 -282 -83 -79 -96 -88 -99 -69 -3 16 20 48 84 118 89 96 321 320 349 335 9 6 21 2 35 -12 11 -11 26 -20 33 -20 19 0 177 99 177 111 0 6 -3 8 -7 6 -5 -2 -40 -23 -80 -46 -74 -44 -115 -50 -121 -18 -2 10 3 17 11 17 8 0 20 7 27 15 10 12 10 15 -3 15 -31 0 -147 -98 -322 -272 -99 -98 -181 -178 -182 -178 -2 0 -3 16 -3 36 0 38 0 38 198 247 l92 98 0 98 0 98 58 38 c110 72 192 139 192 157 0 19 28 38 48 31 6 -3 12 -14 12 -24 0 -11 5 -17 10 -14 15 9 12 23 -10 45 -26 26 -63 13 -70 -23 -4 -21 -34 -46 -135 -114 l-130 -88 3 -86 c3 -59 -1 -95 -10 -112 -7 -14 -68 -82 -135 -151 -122 -125 -123 -126 -123 -93 0 27 12 47 61 103 34 38 68 79 76 92 9 12 24 22 34 22 23 0 42 34 34 60 -4 11 -18 23 -32 26 -33 9 -57 -19 -49 -58 4 -22 -5 -39 -52 -93 -31 -36 -58 -61 -60 -56 -7 20 48 167 86 230 118 200 321 359 595 467 l125 49 7 68 c4 38 6 70 4 72 -2 1 -42 -10 -89 -26z m-1662 -672 c4 -20 -25 -34 -40 -19 -15 15 -1 44 19 40 10 -2 19 -11 21 -21z m742 -23 c0 -20 -30 -30 -40 -13 -11 17 7 40 26 32 8 -3 14 -12 14 -19z m368 3 c4 -21 -25 -34 -40 -19 -8 8 -8 16 2 27 16 19 34 15 38 -8z" style="fill: rgb(255, 255, 255);"/>
    <path d="M1328 2339 c6 -7 12 -29 12 -49 0 -24 7 -43 19 -54 18 -17 19 -17 25 2 4 11 15 27 26 37 25 22 25 31 3 38 -10 3 -36 12 -58 22 -26 11 -36 12 -27 4z" style="fill: rgb(255, 255, 255);"/>
    <path d="M1230 2320 c-11 -11 -20 -23 -20 -28 0 -20 34 -52 55 -52 28 0 82 -58 90 -98 8 -38 18 -53 43 -70 27 -18 28 -12 2 18 -11 13 -20 34 -20 47 0 15 -17 44 -41 71 -30 35 -39 52 -34 69 3 15 -1 29 -15 43 -25 25 -35 25 -60 0z m56 -21 c3 -6 -1 -18 -9 -27 -13 -12 -19 -13 -31 -3 -8 7 -12 19 -9 27 6 17 39 19 49 3z" style="fill: rgb(255, 255, 255);"/>
    <path d="M2731 2320 l-44 -20 21 -23 c12 -13 22 -31 22 -40 0 -20 13 -22 27 -4 8 9 25 108 19 107 0 0 -21 -9 -45 -20z" style="fill: rgb(255, 255, 255);"/>
    <path d="M2820 2326 c-6 -8 -10 -28 -8 -45 2 -21 -5 -38 -21 -55 -13 -14 -31 -49 -41 -78 -17 -54 -30 -66 -150 -138 -22 -13 -36 -26 -30 -28 5 -2 25 6 43 17 17 11 55 34 84 51 43 26 54 39 67 78 21 62 55 102 97 116 43 14 53 55 17 80 -28 20 -42 20 -58 2z m50 -21 c15 -18 6 -45 -15 -45 -18 0 -30 24 -21 45 7 19 20 19 36 0z" style="fill: rgb(255, 255, 255);"/>
    <path d="M1550 2231 c0 -6 48 -43 106 -82 120 -80 130 -79 22 4 -96 72 -128 92 -128 78z" style="fill: rgb(255, 255, 255);"/>
    <path d="M2500 2196 c-121 -83 -153 -123 -37 -46 59 39 107 75 107 80 0 14 2 15 -70 -34z" style="fill: rgb(255, 255, 255);"/>
    <path d="M2692 2151 c-8 -5 -12 -16 -10 -24 2 -11 7 -14 16 -8 8 5 12 16 10 24 -2 11 -7 14 -16 8z" style="fill: rgb(255, 255, 255);"/>
    <path d="M1421 2134 c0 -11 3 -14 6 -6 3 7 2 16 -1 19 -3 4 -6 -2 -5 -13z" style="fill: rgb(255, 255, 255);"/>
    <path d="M2506 2050 l-76 -50 0 -55 c0 -67 15 -72 73 -24 49 40 40 50 -13 15 l-40 -26 0 35 c0 32 6 40 64 81 54 39 88 74 72 74 -2 0 -38 -22 -80 -50z" style="fill: rgb(255, 255, 255);"/>
    <path d="M1227 2083 c-4 -3 -7 -19 -7 -34 0 -34 23 -48 66 -42 18 3 42 0 54 -7 34 -18 35 -4 2 16 -18 10 -32 28 -36 46 -5 24 -10 28 -39 28 -19 0 -37 -3 -40 -7z m51 -12 c19 -11 11 -45 -11 -49 -19 -4 -32 20 -23 43 6 17 15 19 34 6z" style="fill: rgb(255, 255, 255);"/>
    <path d="M1554 2071 c11 -12 43 -37 73 -57 47 -31 53 -39 53 -70 0 -39 1 -40 -84 21 -57 41 -98 49 -51 9 63 -52 134 -96 144 -90 6 4 11 31 11 59 l0 52 -58 36 c-31 20 -68 42 -82 49 l-25 13 19 -22z" style="fill: rgb(255, 255, 255);"/>
    <path d="M2819 2063 c-6 -19 -30 -40 -70 -63 -58 -33 -102 -70 -83 -70 5 0 40 20 78 44 57 36 74 42 94 35 31 -12 62 5 62 34 0 52 -64 67 -81 20z m60 3 c15 -18 3 -46 -20 -46 -25 0 -35 26 -19 45 15 19 24 19 39 1z" style="fill: rgb(255, 255, 255);"/>
    <path d="M1810 1961 c0 -71 1 -73 18 -58 10 10 29 17 41 17 21 0 22 1 6 28 -9 15 -27 41 -41 57 l-24 30 0 -74z" style="fill: rgb(255, 255, 255);"/>
    <path d="M2271 1984 c-18 -25 -32 -47 -30 -48 2 -2 19 -10 37 -19 l32 -15 0 64 c0 35 -1 64 -3 64 -2 0 -18 -21 -36 -46z" style="fill: rgb(255, 255, 255);"/>
    <path d="M1435 1940 c3 -5 8 -10 11 -10 2 0 4 5 4 10 0 6 -5 10 -11 10 -5 0 -7 -4 -4 -10z" style="fill: rgb(255, 255, 255);"/>
    <path d="M2944 1885 c-14 -22 -24 -25 -73 -25 -58 0 -88 -14 -241 -112 -23 -15 -29 -15 -85 3 -76 24 -84 24 -59 -1 11 -11 33 -23 50 -26 16 -2 40 -7 54 -9 19 -4 49 10 125 60 98 64 101 65 167 65 37 0 70 -4 73 -10 9 -14 48 -13 63 2 7 7 12 21 12 33 0 48 -59 62 -86 20z m61 -20 c0 -13 -8 -21 -22 -23 -17 -3 -23 2 -23 16 0 10 3 22 7 26 13 13 38 1 38 -19z" style="fill: rgb(255, 255, 255);"/>
    <path d="M2400 1840 c0 -19 -8 -43 -17 -54 -10 -12 2 -3 25 19 26 24 38 41 30 44 -7 2 -19 8 -25 14 -10 7 -13 1 -13 -23z" style="fill: rgb(255, 255, 255);"/>
    <path d="M1698 1846 c-16 -12 -16 -14 5 -34 l23 -22 -4 35 c-2 19 -5 35 -6 35 0 0 -9 -7 -18 -14z" style="fill: rgb(255, 255, 255);"/>
  </g>
</svg>